<svg xmlns="http://www.w3.org/2000/svg" width="400" height="400" viewBox="0 0 400 400" fill="none">
  <defs>
    <linearGradient id="bg" x1="0" y1="0" x2="1" y2="1">
      <stop offset="0%" stop-color="#ede9fe"/>
      <stop offset="100%" stop-color="#ddd6fe"/>
    </linearGradient>
    <linearGradient id="bottle" x1="0" y1="0" x2="0" y2="1">
      <stop offset="0%" stop-color="#c4b5fd"/>
      <stop offset="100%" stop-color="#8b5cf6"/>
    </linearGradient>
    <linearGradient id="shine" x1="0" y1="0" x2="1" y2="0">
      <stop offset="0%" stop-color="white" stop-opacity="0.35"/>
      <stop offset="100%" stop-color="white" stop-opacity="0"/>
    </linearGradient>
  </defs>
  <rect width="400" height="400" fill="url(#bg)"/>
  <!-- Bottle body -->
  <rect x="155" y="125" width="90" height="195" rx="14" fill="url(#bottle)"/>
  <rect x="155" y="125" width="28" height="195" rx="14" fill="url(#shine)"/>
  <!-- Cap -->
  <rect x="167" y="98" width="66" height="32" rx="8" fill="#7c3aed"/>
  <!-- Nozzle -->
  <rect x="183" y="78" width="34" height="24" rx="6" fill="#6d28d9"/>
  <!-- Label -->
  <rect x="163" y="168" width="74" height="88" rx="6" fill="white" fill-opacity="0.22"/>
  <rect x="172" y="180" width="56" height="5" rx="2.5" fill="white" fill-opacity="0.6"/>
  <rect x="178" y="193" width="44" height="4" rx="2" fill="white" fill-opacity="0.4"/>
  <rect x="176" y="204" width="48" height="4" rx="2" fill="white" fill-opacity="0.4"/>
  <rect x="180" y="215" width="40" height="4" rx="2" fill="white" fill-opacity="0.3"/>
  <rect x="172" y="230" width="32" height="14" rx="4" fill="white" fill-opacity="0.32"/>
  <!-- Droplet shadow -->
  <ellipse cx="200" cy="348" rx="22" ry="7" fill="#8b5cf6" fill-opacity="0.18"/>
  <!-- Droplet -->
  <path d="M194 322 Q200 306 206 322 Q206 333 200 335 Q194 333 194 322Z" fill="#a78bfa" fill-opacity="0.55"/>
  <text x="200" y="388" text-anchor="middle" font-family="system-ui,sans-serif" font-size="11" fill="#7c3aed" fill-opacity="0.55" font-weight="600" letter-spacing="3">E-LIQUID</text>
</svg>
